<svg width="83" height="28" viewBox="0 0 83 28" fill="none" xmlns="http://www.w3.org/2000/svg">
<path d="M7.81241 12.7974C8.64939 12.7974 9.4236 12.9011 10.135 13.1085C10.8604 13.303 11.4812 13.6076 11.9973 14.0224C12.5135 14.4372 12.918 14.9622 13.2109 15.5974C13.5039 16.2196 13.6504 16.965 13.6504 17.8335C13.6504 18.6631 13.5248 19.389 13.2737 20.0112C13.0226 20.6334 12.6669 21.1584 12.2066 21.5862C11.7462 22.001 11.1882 22.3121 10.5326 22.5195C9.89091 22.7269 9.1725 22.8306 8.37737 22.8306C7.77753 22.8306 7.21955 22.7463 6.70341 22.5778V25.8056C6.56391 25.8444 6.34072 25.8833 6.03382 25.9222C5.72693 25.9741 5.41306 26 5.09222 26C4.78533 26 4.50633 25.9806 4.25524 25.9417C4.0181 25.9028 3.81583 25.825 3.64843 25.7083C3.48103 25.5917 3.35549 25.4296 3.27179 25.2222C3.18809 25.0278 3.14624 24.7685 3.14624 24.4445V15.1113C3.14624 14.7613 3.22296 14.4761 3.37641 14.2557C3.54381 14.0354 3.767 13.8345 4.04599 13.653C4.47844 13.3937 5.0155 13.1863 5.65718 13.0308C6.29887 12.8752 7.01728 12.7974 7.81241 12.7974ZM7.85426 20.2251C9.29108 20.2251 10.0095 19.4279 10.0095 17.8335C10.0095 17.0038 9.82814 16.3881 9.46545 15.9863C9.1167 15.5844 8.60754 15.3835 7.93796 15.3835C7.67291 15.3835 7.43577 15.4159 7.22652 15.4807C7.01728 15.5326 6.83593 15.5974 6.68249 15.6752V19.9529C6.84988 20.0307 7.03123 20.0955 7.22652 20.1473C7.42182 20.1992 7.63106 20.2251 7.85426 20.2251Z" fill="#8B53FF"/>
<path d="M19.361 20.439C19.5981 20.439 19.8562 20.4195 20.1352 20.3806C20.4281 20.3288 20.6443 20.264 20.7838 20.1862V18.6307L19.2773 18.7473C18.8867 18.7733 18.5658 18.851 18.3147 18.9807C18.0636 19.1103 17.9381 19.3047 17.9381 19.564C17.9381 19.8232 18.0427 20.0371 18.252 20.2057C18.4751 20.3612 18.8448 20.439 19.361 20.439ZM19.1936 12.7974C19.9468 12.7974 20.6304 12.8687 21.2442 13.0113C21.8719 13.1539 22.402 13.3743 22.8344 13.6724C23.2808 13.9576 23.6226 14.327 23.8597 14.7807C24.0969 15.2215 24.2154 15.7465 24.2154 16.3557V20.7112C24.2154 21.0482 24.1108 21.3269 23.9016 21.5473C23.7063 21.7547 23.4691 21.9362 23.1901 22.0917C22.2834 22.5973 21.007 22.85 19.361 22.85C18.6216 22.85 17.952 22.7852 17.3522 22.6556C16.7663 22.526 16.2571 22.3315 15.8247 22.0723C15.4062 21.813 15.0784 21.4825 14.8413 21.0806C14.6181 20.6788 14.5065 20.2121 14.5065 19.6807C14.5065 18.7862 14.7924 18.0992 15.3644 17.6196C15.9363 17.14 16.8221 16.8418 18.0218 16.7252L20.7629 16.4529V16.3168C20.7629 15.9409 20.5815 15.6752 20.2189 15.5196C19.8701 15.3511 19.3609 15.2668 18.6914 15.2668C18.1613 15.2668 17.6451 15.3187 17.1429 15.4224C16.6408 15.5261 16.1874 15.6557 15.7829 15.8113C15.6015 15.6946 15.4481 15.5196 15.3225 15.2863C15.197 15.04 15.1342 14.7872 15.1342 14.528C15.1342 14.1909 15.2179 13.9252 15.3853 13.7308C15.5666 13.5234 15.8387 13.3484 16.2013 13.2058C16.6059 13.0632 17.0802 12.9595 17.6242 12.8947C18.1822 12.8298 18.7053 12.7974 19.1936 12.7974Z" fill="#8B53FF"/>
<path d="M27.317 20.1279C27.1636 19.8038 26.9962 19.4408 26.8148 19.039C26.6474 18.6372 26.4661 18.177 26.2708 17.6585C26.0894 17.14 25.8941 16.5502 25.6849 15.8891C25.4896 15.215 25.2804 14.4437 25.0572 13.5752C25.2525 13.3937 25.5105 13.2382 25.8314 13.1085C26.1662 12.966 26.5289 12.8947 26.9194 12.8947C27.4077 12.8947 27.8122 12.9919 28.1331 13.1863C28.4539 13.3678 28.6911 13.7178 28.8445 14.2363L30.4975 19.5834H30.5812C30.7486 19.1427 30.9091 18.6631 31.0625 18.1446C31.2299 17.6261 31.3903 17.0946 31.5438 16.5502C31.6972 15.9928 31.8367 15.4418 31.9623 14.8974C32.1018 14.34 32.2203 13.7956 32.318 13.2641C32.8202 13.0178 33.3712 12.8947 33.971 12.8947C34.4592 12.8947 34.8638 12.9919 35.1846 13.1863C35.5055 13.3808 35.6659 13.7178 35.6659 14.1974C35.6659 14.5474 35.6171 14.9557 35.5194 15.4224C35.4218 15.8761 35.2893 16.3622 35.1219 16.8807C34.9684 17.3992 34.7801 17.9372 34.5569 18.4946C34.3476 19.039 34.1245 19.577 33.8873 20.1084C33.6502 20.6399 33.406 21.1454 33.155 21.6251C32.9039 22.0917 32.6597 22.513 32.4226 22.8889C32.032 23.5241 31.6693 24.0426 31.3345 24.4445C30.9997 24.8463 30.6789 25.1574 30.372 25.3778C30.0651 25.6111 29.7582 25.7667 29.4513 25.8444C29.1444 25.9352 28.8236 25.9806 28.4888 25.9806C27.9029 25.9806 27.4286 25.8185 27.0659 25.4945C26.7032 25.1704 26.487 24.7491 26.4173 24.2306C26.8636 23.9065 27.31 23.5436 27.7564 23.1417C28.2028 22.7528 28.6074 22.351 28.97 21.9362C28.7329 21.8714 28.4748 21.7223 28.1958 21.489C27.9308 21.2427 27.6379 20.789 27.317 20.1279Z" fill="#8B53FF"/>
<path d="M45.4121 19.7195C45.4121 20.7047 45.0146 21.476 44.2194 22.0334C43.4243 22.5908 42.2525 22.8695 40.7041 22.8695C40.1182 22.8695 39.5742 22.8306 39.072 22.7528C38.5698 22.6751 38.1374 22.5584 37.7747 22.4028C37.426 22.2343 37.147 22.0269 36.9377 21.7806C36.7424 21.5343 36.6448 21.2427 36.6448 20.9056C36.6448 20.5945 36.7145 20.3353 36.854 20.1279C36.9935 19.9075 37.1609 19.726 37.3562 19.5834C37.7607 19.7908 38.2211 19.9788 38.7372 20.1473C39.2673 20.3029 39.8741 20.3806 40.5577 20.3806C40.9901 20.3806 41.3179 20.3223 41.5411 20.2057C41.7783 20.089 41.8968 19.9334 41.8968 19.739C41.8968 19.5575 41.8131 19.4149 41.6457 19.3112C41.4783 19.2075 41.1993 19.1233 40.8088 19.0584L40.181 18.9418C38.9674 18.7214 38.0607 18.3779 37.4608 17.9112C36.8749 17.4316 36.582 16.7511 36.582 15.8696C36.582 15.39 36.6936 14.9557 36.9168 14.5669C37.14 14.178 37.4539 13.8539 37.8584 13.5947C38.2629 13.3354 38.7442 13.1345 39.3022 12.9919C39.8741 12.8493 40.5019 12.778 41.1854 12.778C41.7015 12.778 42.1828 12.8169 42.6292 12.8947C43.0895 12.9595 43.4871 13.0632 43.8219 13.2058C44.1567 13.3484 44.4217 13.5363 44.617 13.7696C44.8123 13.99 44.91 14.2558 44.91 14.5669C44.91 14.865 44.8472 15.1243 44.7216 15.3446C44.61 15.552 44.4636 15.727 44.2822 15.8696C44.1706 15.8048 44.0032 15.74 43.78 15.6752C43.5568 15.5974 43.3127 15.5326 43.0477 15.4807C42.7826 15.4159 42.5106 15.3641 42.2316 15.3252C41.9666 15.2863 41.7225 15.2668 41.4993 15.2668C41.0389 15.2668 40.6832 15.3187 40.4321 15.4224C40.181 15.5131 40.0555 15.6622 40.0555 15.8696C40.0555 16.0122 40.1252 16.1289 40.2647 16.2196C40.4042 16.3103 40.6693 16.3946 41.0598 16.4724L41.7085 16.6085C43.0477 16.8937 43.9963 17.289 44.5542 17.7946C45.1262 18.2872 45.4121 18.9288 45.4121 19.7195Z" fill="#8B53FF"/>
<path d="M56.7572 22.5195C56.6177 22.5584 56.3945 22.5973 56.0876 22.6362C55.7946 22.6751 55.4877 22.6945 55.1669 22.6945C54.86 22.6945 54.581 22.6751 54.3299 22.6362C54.0928 22.5973 53.8905 22.5195 53.7231 22.4028C53.5557 22.2862 53.4232 22.1306 53.3255 21.9362C53.2418 21.7288 53.2 21.463 53.2 21.139V16.8224C53.2 16.2909 53.0535 15.9215 52.7606 15.7141C52.4816 15.4937 52.1328 15.3835 51.7144 15.3835C51.4354 15.3835 51.1703 15.4159 50.9192 15.4807C50.6681 15.5455 50.4659 15.6233 50.3124 15.7141V22.5195C50.1729 22.5584 49.9497 22.5973 49.6428 22.6362C49.3499 22.6751 49.043 22.6945 48.7221 22.6945C48.4152 22.6945 48.1363 22.6751 47.8852 22.6362C47.648 22.5973 47.4457 22.5195 47.2784 22.4028C47.111 22.2862 46.9784 22.1306 46.8808 21.9362C46.7971 21.7288 46.7552 21.463 46.7552 21.139V9.86138C46.9087 9.83545 47.1319 9.80305 47.4248 9.76416C47.7317 9.71231 48.0386 9.68638 48.3455 9.68638C48.6524 9.68638 48.9244 9.70583 49.1616 9.74471C49.4127 9.7836 49.6219 9.86138 49.7893 9.97804C49.9567 10.0947 50.0822 10.2567 50.1659 10.4641C50.2636 10.6586 50.3124 10.9178 50.3124 11.2419V13.1474C50.4938 13.0826 50.7658 13.0113 51.1285 12.9336C51.5051 12.8428 51.9166 12.7974 52.363 12.7974C53.744 12.7974 54.8182 13.1215 55.5854 13.7696C56.3666 14.4048 56.7572 15.3576 56.7572 16.6279V22.5195Z" fill="#8B53FF"/>
<path d="M62.1758 22.5195C62.0224 22.5454 61.7922 22.5778 61.4853 22.6167C61.1923 22.6686 60.8924 22.6945 60.5855 22.6945C60.2786 22.6945 59.9996 22.6751 59.7486 22.6362C59.5114 22.5973 59.3091 22.5195 59.1417 22.4028C58.9743 22.2862 58.8418 22.1306 58.7442 21.9362C58.6605 21.7288 58.6186 21.463 58.6186 21.139V10.7947C58.7721 10.7688 58.9953 10.7364 59.2882 10.6975C59.5951 10.6456 59.902 10.6197 60.2089 10.6197C60.5158 10.6197 60.7878 10.6391 61.0249 10.678C61.276 10.7169 61.4853 10.7947 61.6527 10.9114C61.8201 11.028 61.9456 11.1901 62.0293 11.3975C62.127 11.5919 62.1758 11.8512 62.1758 12.1752V22.5195Z" fill="#8B53FF"/>
<path d="M64.0638 13.0891C64.0638 12.428 64.1823 11.8641 64.4195 11.3975C64.6706 10.9178 65.0054 10.529 65.4238 10.2308C65.8423 9.91971 66.3306 9.69286 66.8886 9.55027C67.4605 9.40768 68.0673 9.33639 68.709 9.33639C69.7413 9.33639 70.5015 9.46601 70.9898 9.72527C71.478 9.97156 71.7221 10.3993 71.7221 11.0086C71.7221 11.2678 71.6593 11.5012 71.5338 11.7086C71.4222 11.916 71.2967 12.0715 71.1572 12.1752C70.8921 12.1104 70.6131 12.0586 70.3202 12.0197C70.0412 11.9678 69.7134 11.9419 69.3367 11.9419C68.7369 11.9419 68.2696 12.0391 67.9348 12.2336C67.6 12.415 67.4326 12.7391 67.4326 13.2058V13.828H70.8642C70.9479 13.9706 71.0246 14.152 71.0944 14.3724C71.1781 14.5798 71.2199 14.8131 71.2199 15.0724C71.2199 15.5261 71.1083 15.8566 70.8851 16.0641C70.6759 16.2585 70.3899 16.3557 70.0272 16.3557H67.6209V22.5195C67.4814 22.5584 67.2582 22.5973 66.9513 22.6362C66.6584 22.6751 66.3515 22.6945 66.0307 22.6945C65.7238 22.6945 65.4448 22.6751 65.1937 22.6362C64.9565 22.5973 64.7543 22.5195 64.5869 22.4028C64.4195 22.2862 64.2869 22.1306 64.1893 21.9362C64.1056 21.7288 64.0638 21.463 64.0638 21.139V13.0891Z" fill="#8B53FF"/>
<path d="M76.0494 19.2918C76.0494 19.6288 76.161 19.8686 76.3842 20.0112C76.6213 20.1538 76.9492 20.2251 77.3677 20.2251C77.5769 20.2251 77.7931 20.2121 78.0163 20.1862C78.2395 20.1473 78.4348 20.1019 78.6022 20.0501C78.7277 20.1927 78.8324 20.3547 78.9161 20.5362C79.0137 20.7047 79.0625 20.9121 79.0625 21.1584C79.0625 21.651 78.8603 22.0528 78.4557 22.3639C78.0651 22.6751 77.3677 22.8306 76.3633 22.8306C75.1357 22.8306 74.1871 22.5714 73.5175 22.0528C72.8619 21.5343 72.5341 20.6918 72.5341 19.5251V11.203C72.6875 11.1641 72.9038 11.1252 73.1827 11.0864C73.4757 11.0345 73.7826 11.0086 74.1034 11.0086C74.7172 11.0086 75.1915 11.1123 75.5263 11.3197C75.875 11.5141 76.0494 11.9354 76.0494 12.5836V13.828H78.7905C78.8742 13.9706 78.9509 14.152 79.0207 14.3724C79.1044 14.5798 79.1462 14.8131 79.1462 15.0724C79.1462 15.5261 79.0346 15.8566 78.8114 16.0641C78.6022 16.2585 78.3162 16.3557 77.9535 16.3557H76.0494V19.2918Z" fill="#8B53FF"/>
<path d="M64.0637 3.13363C61.4095 0.923176 56.3021 2.52254 56.0876 3.11893C56.0876 7.29367 58.1527 9.30643 60.091 9.32302C62.0293 9.33961 64.0454 6.23127 64.0637 3.13363Z" fill="url(#paint0_linear_2991_963)"/>
<defs>
<linearGradient id="paint0_linear_2991_963" x1="56.6581" y1="5.64536" x2="63.524" y2="5.64536" gradientUnits="userSpaceOnUse">
<stop offset="0.295" stop-color="#D1BCFF"/>
<stop offset="0.88" stop-color="#8B53FF"/>
</linearGradient>
</defs>
</svg>
