<svg width="21" height="20" viewBox="0 0 21 20" fill="none" xmlns="http://www.w3.org/2000/svg">
<path d="M10.25 5.6123C10.7678 5.6123 11.1875 5.19257 11.1875 4.6748C11.1875 4.15704 10.7678 3.7373 10.25 3.7373C9.73223 3.7373 9.3125 4.15704 9.3125 4.6748C9.3125 5.19257 9.73223 5.6123 10.25 5.6123Z" fill="#030055"/>
<path d="M1.5 8.1123H19C19.5606 8.1123 20.0525 7.73918 20.2037 7.19918C20.355 6.65918 20.1281 6.0848 19.6491 5.79387L10.8991 0.481367C10.6994 0.360117 10.4747 0.299805 10.25 0.299805C10.0253 0.299805 9.80062 0.360117 9.60125 0.481367L0.851246 5.79387C0.372184 6.0848 0.144996 6.65949 0.296559 7.19918C0.447496 7.73918 0.939371 8.1123 1.5 8.1123ZM10.25 3.1123C11.1131 3.1123 11.8125 3.81168 11.8125 4.6748C11.8125 5.53793 11.1131 6.2373 10.25 6.2373C9.38687 6.2373 8.6875 5.53793 8.6875 4.6748C8.6875 3.81168 9.38687 3.1123 10.25 3.1123Z" fill="#030055"/>
<path d="M13.375 8.7373H10.875V16.5498H13.375V8.7373Z" fill="#030055"/>
<path d="M17.125 8.7373H14.625V16.5498H17.125V8.7373Z" fill="#030055"/>
<path d="M9.625 8.7373H7.125V16.5498H9.625V8.7373Z" fill="#030055"/>
<path d="M5.875 8.7373H3.375V16.5498H5.875V8.7373Z" fill="#030055"/>
<path d="M1.5 18.4248H19C19 17.7345 18.4403 17.1748 17.75 17.1748H2.75C2.05969 17.1748 1.5 17.7345 1.5 18.4248Z" fill="#030055"/>
<path d="M20.0766 18.2998H0.423438C0.315937 18.4845 0.25 18.6961 0.25 18.9248V19.5498H20.25V18.9248C20.25 18.6961 20.1841 18.4845 20.0766 18.2998Z" fill="#030055"/>
</svg>
