<svg width="50" height="28" viewBox="0 0 28 28" fill="none" xmlns="http://www.w3.org/2000/svg">
<path d="M22.3245 18.4275C21.5762 17.8304 19.245 16.6817 18.6699 16.5493C18.0959 16.4159 17.401 16.971 17.2097 17.6603C17.0172 18.3499 16.6583 18.2847 16.6583 18.2847C16.6583 18.2847 15.2756 17.7767 12.7463 15.2571C10.2167 12.7367 9.70536 11.3559 9.70536 11.3559C9.70536 11.3559 9.63786 10.997 10.3272 10.8019C11.015 10.6087 11.5679 9.9116 11.4329 9.33756C11.2987 8.76356 10.1407 6.4357 9.54144 5.69071C8.94078 4.94577 7.78051 5.32995 7.52543 5.5157C7.26886 5.70079 4.57236 7.41503 5.38333 10.5716C6.19535 13.7287 7.93741 16.2542 9.85185 18.1624C11.7667 20.0697 14.2985 21.8021 17.4581 22.6023C20.6173 23.4029 22.3219 20.7001 22.5062 20.4435C22.6909 20.1877 23.0705 19.0256 22.3245 18.4275Z" fill="black"/>
</svg>
