<svg width="24" height="21" viewBox="0 0 24 21" fill="none" xmlns="http://www.w3.org/2000/svg">
<path d="M12 9.05469C10.3175 9.05469 8.95361 10.4305 8.95361 12.1277C8.95361 13.8258 10.3175 15.2007 12 15.2007C13.6824 15.2007 15.0458 13.8258 15.0458 12.1277C15.0458 10.4304 13.6824 9.05469 12 9.05469Z" fill="white"/>
<path d="M23.2857 5.06129C22.8477 4.6178 22.2306 4.33867 21.5567 4.33867H18.9128C18.6997 4.33951 18.501 4.21201 18.4095 4.00618L17.6174 2.23309C17.2257 1.35461 16.3548 0.783203 15.3882 0.783203H8.61071C7.64458 0.783203 6.77331 1.35461 6.38064 2.23309L5.58939 4.00618C5.49789 4.21201 5.29881 4.33951 5.08614 4.33867H2.44226C1.76876 4.33867 1.15038 4.61776 0.711542 5.06129C0.272699 5.50351 -0.000488281 6.12151 -0.000488281 6.79458V18.1725C-0.000488281 18.846 0.272699 19.4636 0.711542 19.9058C1.15034 20.3493 1.76876 20.6284 2.44226 20.6276H12.968H21.5568C22.2307 20.6284 22.8478 20.3493 23.2858 19.9058C23.7267 19.4636 23.9995 18.846 23.9995 18.1725V6.79458C23.9995 6.12151 23.7267 5.50266 23.2857 5.06129ZM15.9118 16.0648C14.9143 17.0733 13.5263 17.7003 11.9997 17.7003C10.4723 17.7003 9.08471 17.0734 8.08717 16.0648C7.08798 15.0589 6.46867 13.6619 6.46956 12.1277C6.46872 10.5936 7.08798 9.19786 8.08717 8.19024C9.08467 7.18252 10.4719 6.55482 11.9997 6.55608C13.5263 6.55482 14.9143 7.18252 15.9118 8.19024C16.911 9.19791 17.5303 10.5936 17.529 12.1277C17.5303 13.6619 16.911 15.0589 15.9118 16.0648ZM21.6542 8.76206H19.9764V7.08385H21.6542V8.76206Z" fill="white"/>
</svg>
