<svg width="31" height="30" viewBox="0 0 31 30" fill="none" xmlns="http://www.w3.org/2000/svg">
<path d="M17.9991 5H12.9991C8.28505 5 5.92804 5 4.46356 6.46446C3.40914 7.51889 3.11391 9.03603 3.03125 11.5625H27.967C27.8843 9.03603 27.5891 7.51889 26.5346 6.46446C25.0702 5 22.7131 5 17.9991 5Z" fill="#030055"/>
<path d="M13 25H18C22.714 25 25.0711 25 26.5355 23.5355C28 22.0711 28 19.714 28 15C28 14.4476 28 13.9275 27.9976 13.4375H3.00236C3 13.9275 3 14.4476 3 15C3 19.714 3 22.0711 4.46446 23.5355C5.92894 25 8.28595 25 13 25Z" fill="#030055"/>
<path fill-rule="evenodd" clip-rule="evenodd" d="M7.0625 20C7.0625 19.4822 7.48224 19.0625 8 19.0625H13C13.5177 19.0625 13.9375 19.4822 13.9375 20C13.9375 20.5178 13.5177 20.9375 13 20.9375H8C7.48224 20.9375 7.0625 20.5178 7.0625 20Z" fill="white"/>
<path fill-rule="evenodd" clip-rule="evenodd" d="M15.1875 20C15.1875 19.4822 15.6072 19.0625 16.125 19.0625H18C18.5178 19.0625 18.9375 19.4822 18.9375 20C18.9375 20.5178 18.5178 20.9375 18 20.9375H16.125C15.6072 20.9375 15.1875 20.5178 15.1875 20Z" fill="white"/>
</svg>
