<svg width="38" height="39" viewBox="0 0 38 39" fill="none" xmlns="http://www.w3.org/2000/svg">
<path d="M19.0002 6.83305H9.50016C7.75126 6.83305 6.3335 8.25081 6.3335 9.99971V28.9998C6.3335 30.7486 7.75126 32.1664 9.50016 32.1664H28.5002C30.2491 32.1664 31.6668 30.7486 31.6668 28.9998V19.4998M29.156 13.8222L30.8752 12.1031C32.1117 10.8664 32.1117 8.86141 30.8752 7.62476C29.6384 6.3881 27.6334 6.3881 26.3967 7.62478L24.6777 9.34386M29.156 13.8222L19.5985 23.3797C19.1564 23.8218 18.5934 24.1233 17.9805 24.2458L13.3227 25.1773L14.2542 20.5196C14.3768 19.9065 14.6782 19.3435 15.1202 18.9014L24.6777 9.34386M29.156 13.8222L24.6777 9.34386" stroke="#030055" stroke-width="2" stroke-linecap="round" stroke-linejoin="round"/>
</svg>
