<svg width="41" height="41" viewBox="0 0 41 41" fill="none" xmlns="http://www.w3.org/2000/svg">
<path d="M8.16663 5.5V35.5H33.1666V5.5H8.16663ZM6.91663 3H34.4166C34.7481 3 35.0661 3.1317 35.3005 3.36612C35.5349 3.60054 35.6666 3.91848 35.6666 4.25V36.75C35.6666 37.0815 35.5349 37.3995 35.3005 37.6339C35.0661 37.8683 34.7481 38 34.4166 38H6.91663C6.58511 38 6.26716 37.8683 6.03274 37.6339C5.79832 37.3995 5.66663 37.0815 5.66663 36.75V4.25C5.66663 3.91848 5.79832 3.60054 6.03274 3.36612C6.26716 3.1317 6.58511 3 6.91663 3ZM13.1666 20.5H28.1666V23H13.1666V20.5ZM13.1666 13H20.6666V15.5H13.1666V13ZM13.1666 28H28.1666V30.5H13.1666V28Z" fill="#030055"/>
</svg>
