<svg width="48" height="48" viewBox="0 0 48 48" fill="none" xmlns="http://www.w3.org/2000/svg">
<path d="M45.12 24.502C45.12 22.942 44.98 21.442 44.72 20.002H24V28.522H35.84C35.32 31.262 33.76 33.582 31.42 35.142V40.682H38.56C42.72 36.842 45.12 31.202 45.12 24.502Z" fill="#4285F4"/>
<path d="M23.9994 46.0012C29.9394 46.0012 34.9194 44.0412 38.5594 40.6812L31.4194 35.1412C29.4594 36.4612 26.9594 37.2612 23.9994 37.2612C18.2794 37.2612 13.4194 33.4012 11.6794 28.2012H4.35938V33.8812C7.97937 41.0612 15.3994 46.0012 23.9994 46.0012Z" fill="#34A853"/>
<path d="M11.678 28.1787C11.238 26.8587 10.978 25.4587 10.978 23.9987C10.978 22.5387 11.238 21.1387 11.678 19.8187V14.1387H4.35805C2.85805 17.0987 1.99805 20.4387 1.99805 23.9987C1.99805 27.5587 2.85805 30.8987 4.35805 33.8587L10.058 29.4187L11.678 28.1787Z" fill="#FBBC05"/>
<path d="M23.9994 10.762C27.2394 10.762 30.1194 11.882 32.4194 14.042L38.7194 7.74195C34.8994 4.18195 29.9394 2.00195 23.9994 2.00195C15.3994 2.00195 7.97937 6.94195 4.35938 14.142L11.6794 19.822C13.4194 14.622 18.2794 10.762 23.9994 10.762Z" fill="#EA4335"/>
</svg>
