<svg width="56" height="47" viewBox="0 0 56 47" fill="none" xmlns="http://www.w3.org/2000/svg">
<rect width="55.4167" height="46.6667" rx="5.83333" fill="black"/>
<path d="M14.5834 16.334C14.5834 15.3675 15.171 14.584 15.8959 14.584H39.5209C40.2457 14.584 40.8334 15.3675 40.8334 16.334C40.8334 17.3005 40.2457 18.084 39.5209 18.084H15.8959C15.171 18.084 14.5834 17.3005 14.5834 16.334Z" fill="white"/>
<path d="M17.2084 23.334C17.2084 22.3675 17.796 21.584 18.5209 21.584H36.8959C37.6207 21.584 38.2084 22.3675 38.2084 23.334C38.2084 24.3005 37.6207 25.084 36.8959 25.084H18.5209C17.796 25.084 17.2084 24.3005 17.2084 23.334Z" fill="white"/>
<path d="M21.8021 30.334C21.8021 29.3675 22.3898 28.584 23.1146 28.584H32.3021C33.027 28.584 33.6146 29.3675 33.6146 30.334C33.6146 31.3005 33.027 32.084 32.3021 32.084H23.1146C22.3898 32.084 21.8021 31.3005 21.8021 30.334Z" fill="white"/>
</svg>
