<svg width="28" height="28" viewBox="0 0 28 28" fill="none" xmlns="http://www.w3.org/2000/svg">
<path d="M11.8329 6.81677C12.1328 5.90683 12.9897 5.25 14.0001 5.25C15.0104 5.25 15.8674 5.90683 16.1672 6.81677C18.2421 7.66982 19.7031 9.71112 19.7031 12.0936V16.6561L22.1513 19.1043C22.5106 19.4636 22.2561 20.0779 21.748 20.0779H6.25199C5.74391 20.0779 5.48945 19.4636 5.84872 19.1043L8.29703 16.6561V12.0936C8.29703 9.71112 9.75802 7.66982 11.8329 6.81677Z" fill="black"/>
<path d="M11.6974 20.249C11.6974 21.3684 12.6185 22.75 14.0001 22.75C15.3816 22.75 16.3026 21.3684 16.3026 20.249H11.6974Z" fill="black"/>
</svg>
