<svg width="292" height="103" viewBox="0 0 292 103" fill="none" xmlns="http://www.w3.org/2000/svg">
<g filter="url(#filter0_d_3027_7641)">
<path d="M24.9088 39.632C27.9493 39.632 30.7617 40.0087 33.3461 40.7621C35.9812 41.4685 38.2363 42.5751 40.1112 44.082C41.9862 45.5888 43.4558 47.4959 44.52 49.8033C45.5841 52.0636 46.1162 54.7713 46.1162 57.9263C46.1162 60.94 45.6601 63.5771 44.748 65.8374C43.8358 68.0977 42.5436 70.0048 40.8714 71.5588C39.1991 73.0656 37.1721 74.1958 34.7904 74.9492C32.4593 75.7027 29.8496 76.0794 26.9611 76.0794C24.7821 76.0794 22.7551 75.7733 20.8801 75.1611V86.8865C20.3734 87.0277 19.5626 87.169 18.4477 87.3103C17.3329 87.4986 16.1927 87.5928 15.0272 87.5928C13.9123 87.5928 12.8988 87.5222 11.9867 87.3809C11.1252 87.2396 10.3904 86.9571 9.7823 86.5333C9.17421 86.1095 8.71813 85.5209 8.41408 84.7674C8.11003 84.0611 7.95801 83.1193 7.95801 81.942V48.0375C7.95801 46.7661 8.23672 45.7301 8.79414 44.9296C9.40224 44.129 10.213 43.3992 11.2265 42.7399C12.7975 41.7981 14.7484 41.0447 17.0795 40.4796C19.4105 39.9145 22.0203 39.632 24.9088 39.632ZM25.0608 66.6143C30.2803 66.6143 32.8901 63.7183 32.8901 57.9263C32.8901 54.9126 32.2313 52.6758 30.9137 51.216C29.6469 49.7562 27.7972 49.0264 25.3648 49.0264C24.402 49.0264 23.5405 49.1441 22.7804 49.3795C22.0203 49.5679 21.3615 49.8033 20.8041 50.0859V65.6255C21.4122 65.908 22.071 66.1435 22.7804 66.3318C23.4899 66.5202 24.25 66.6143 25.0608 66.6143Z" fill="#8B53FF"/>
<path d="M66.861 67.3913C67.7225 67.3913 68.66 67.3207 69.6735 67.1794C70.7377 66.9911 71.5231 66.7556 72.0299 66.4731V60.8223L66.557 61.2461C65.1381 61.3403 63.9726 61.6228 63.0604 62.0937C62.1483 62.5646 61.6922 63.271 61.6922 64.2128C61.6922 65.1546 62.0723 65.9315 62.8324 66.5437C63.6432 67.1088 64.9861 67.3913 66.861 67.3913ZM66.2529 39.632C68.9894 39.632 71.4725 39.891 73.7022 40.409C75.9825 40.9269 77.9082 41.7275 79.4791 42.8105C81.1007 43.8465 82.3422 45.1886 83.2037 46.8367C84.0652 48.4377 84.4959 50.3449 84.4959 52.5581V68.3802C84.4959 69.6045 84.1158 70.617 83.3557 71.4175C82.6463 72.1709 81.7848 72.8302 80.7713 73.3953C77.4774 75.2318 72.8407 76.15 66.861 76.15C64.1753 76.15 61.7429 75.9146 59.5639 75.4437C57.4355 74.9728 55.5859 74.2664 54.015 73.3246C52.4947 72.3828 51.3038 71.182 50.4424 69.7223C49.6316 68.2625 49.2262 66.5673 49.2262 64.6366C49.2262 61.3874 50.265 58.8916 52.3427 57.1493C54.4204 55.407 57.6382 54.3239 61.9963 53.9001L71.9539 52.9113V52.4168C71.9539 51.0512 71.2951 50.0859 69.9776 49.5208C68.7107 48.9086 66.861 48.6026 64.4286 48.6026C62.503 48.6026 60.628 48.7909 58.8037 49.1676C56.9794 49.5443 55.3325 50.0152 53.8629 50.5803C53.2042 50.1565 52.6467 49.5208 52.1907 48.6732C51.7346 47.7785 51.5065 46.8602 51.5065 45.9184C51.5065 44.6941 51.8106 43.7288 52.4187 43.0224C53.0775 42.269 54.0656 41.6333 55.3832 41.1153C56.8528 40.5973 58.5757 40.2206 60.552 39.9851C62.579 39.7497 64.4793 39.632 66.2529 39.632Z" fill="#8B53FF"/>
<path d="M95.763 66.2612C95.2055 65.0839 94.5974 63.7654 93.9387 62.3056C93.3306 60.8459 92.6718 59.1742 91.9623 57.2906C91.3036 55.407 90.5941 53.2644 89.834 50.8629C89.1245 48.4142 88.3644 45.6124 87.5536 42.4574C88.2631 41.7981 89.2006 41.233 90.3661 40.7621C91.5823 40.2441 92.8998 39.9851 94.3187 39.9851C96.0923 39.9851 97.5619 40.3383 98.7274 41.0447C99.893 41.7039 100.754 42.9753 101.312 44.8589L107.317 64.2834H107.621C108.229 62.6824 108.812 60.94 109.369 59.0565C109.977 57.1729 110.56 55.2422 111.117 53.2644C111.675 51.2396 112.182 49.2383 112.638 47.2605C113.144 45.2356 113.575 43.2579 113.93 41.3272C115.754 40.4325 117.756 39.9851 119.935 39.9851C121.709 39.9851 123.178 40.3383 124.344 41.0447C125.509 41.751 126.092 42.9753 126.092 44.7177C126.092 45.9891 125.915 47.4724 125.56 49.1676C125.205 50.8158 124.724 52.5816 124.116 54.4652C123.558 56.3488 122.874 58.303 122.063 60.3279C121.303 62.3056 120.492 64.2599 119.631 66.1905C118.769 68.1212 117.883 69.9577 116.97 71.7C116.058 73.3953 115.171 74.9257 114.31 76.2913C112.891 78.5987 111.574 80.4823 110.357 81.942C109.141 83.4018 107.976 84.532 106.861 85.3325C105.746 86.1801 104.631 86.7452 103.516 87.0277C102.401 87.3573 101.236 87.5222 100.02 87.5222C97.8913 87.5222 96.1684 86.9335 94.8508 85.7563C93.5333 84.5791 92.7478 83.0486 92.4944 81.1651C94.116 79.9878 95.7376 78.6693 97.3592 77.2095C98.9808 75.7968 100.45 74.3371 101.768 72.8302C100.906 72.5947 99.969 72.0532 98.9555 71.2056C97.9927 70.3109 96.9285 68.6628 95.763 66.2612Z" fill="#8B53FF"/>
<path d="M161.497 64.7778C161.497 68.3567 160.053 71.1585 157.164 73.1834C154.276 75.2082 150.019 76.2206 144.394 76.2206C142.266 76.2206 140.29 76.0794 138.465 75.7968C136.641 75.5143 135.07 75.0905 133.752 74.5254C132.486 73.9132 131.472 73.1598 130.712 72.2651C130.003 71.3704 129.648 70.3109 129.648 69.0866C129.648 67.9564 129.901 67.0146 130.408 66.2612C130.915 65.4607 131.523 64.8014 132.232 64.2834C133.702 65.0368 135.374 65.7196 137.249 66.3318C139.175 66.8969 141.379 67.1794 143.862 67.1794C145.433 67.1794 146.624 66.9675 147.435 66.5437C148.296 66.1199 148.727 65.5548 148.727 64.8485C148.727 64.1892 148.423 63.6712 147.815 63.2945C147.207 62.9178 146.193 62.6117 144.774 62.3763L142.494 61.9525C138.085 61.1519 134.791 59.9041 132.612 58.2088C130.484 56.4665 129.42 53.9943 129.42 50.7922C129.42 49.0499 129.825 47.4724 130.636 46.0597C131.447 44.647 132.587 43.4698 134.057 42.528C135.526 41.5862 137.274 40.8563 139.301 40.3383C141.379 39.8203 143.659 39.5613 146.143 39.5613C148.017 39.5613 149.766 39.7026 151.387 39.9851C153.06 40.2206 154.504 40.5973 155.72 41.1153C156.936 41.6333 157.899 42.3161 158.609 43.1637C159.318 43.9642 159.673 44.9296 159.673 46.0597C159.673 47.1428 159.445 48.0846 158.989 48.8851C158.583 49.6385 158.051 50.2742 157.392 50.7922C156.987 50.5568 156.379 50.3213 155.568 50.0859C154.757 49.8033 153.87 49.5679 152.908 49.3795C151.945 49.1441 150.957 48.9557 149.943 48.8145C148.98 48.6732 148.094 48.6026 147.283 48.6026C145.61 48.6026 144.318 48.7909 143.406 49.1676C142.494 49.4973 142.038 50.0388 142.038 50.7922C142.038 51.3102 142.291 51.734 142.798 52.0636C143.305 52.3933 144.268 52.6993 145.686 52.9819L148.043 53.4763C152.908 54.5123 156.354 55.9485 158.381 57.785C160.458 59.5744 161.497 61.9054 161.497 64.7778Z" fill="#8B53FF"/>
<path d="M202.71 74.9492C202.203 75.0905 201.392 75.2318 200.278 75.373C199.213 75.5143 198.099 75.5849 196.933 75.5849C195.818 75.5849 194.805 75.5143 193.893 75.373C193.031 75.2318 192.296 74.9492 191.688 74.5254C191.08 74.1016 190.599 73.5365 190.244 72.8302C189.94 72.0768 189.788 71.1114 189.788 69.9342V54.2533C189.788 52.3226 189.256 50.9806 188.192 50.2271C187.178 49.4266 185.911 49.0264 184.391 49.0264C183.377 49.0264 182.415 49.1441 181.503 49.3795C180.59 49.615 179.856 49.8975 179.298 50.2271V74.9492C178.791 75.0905 177.981 75.2318 176.866 75.373C175.802 75.5143 174.687 75.5849 173.521 75.5849C172.406 75.5849 171.393 75.5143 170.481 75.373C169.619 75.2318 168.884 74.9492 168.276 74.5254C167.668 74.1016 167.187 73.5365 166.832 72.8302C166.528 72.0768 166.376 71.1114 166.376 69.9342V28.9662C166.933 28.872 167.744 28.7543 168.808 28.613C169.923 28.4246 171.038 28.3305 172.153 28.3305C173.268 28.3305 174.256 28.4011 175.117 28.5424C176.03 28.6836 176.79 28.9662 177.398 29.39C178.006 29.8138 178.462 30.4024 178.766 31.1558C179.121 31.8622 179.298 32.804 179.298 33.9812V40.9034C179.957 40.6679 180.945 40.409 182.263 40.1264C183.631 39.7968 185.126 39.632 186.747 39.632C191.764 39.632 195.666 40.8092 198.453 43.1637C201.291 45.4711 202.71 48.9322 202.71 53.547V74.9492Z" fill="#8B53FF"/>
<path d="M222.394 74.9492C221.837 75.0434 221.001 75.1611 219.886 75.3024C218.822 75.4907 217.732 75.5849 216.617 75.5849C215.502 75.5849 214.489 75.5143 213.577 75.373C212.715 75.2318 211.98 74.9492 211.372 74.5254C210.764 74.1016 210.283 73.5365 209.928 72.8302C209.624 72.0768 209.472 71.1114 209.472 69.9342V32.3566C210.029 32.2624 210.84 32.1447 211.904 32.0034C213.019 31.8151 214.134 31.7209 215.249 31.7209C216.364 31.7209 217.352 31.7915 218.214 31.9328C219.126 32.0741 219.886 32.3566 220.494 32.7804C221.102 33.2042 221.558 33.7929 221.862 34.5463C222.217 35.2526 222.394 36.1944 222.394 37.3717V74.9492Z" fill="#8B53FF"/>
<path d="M229.253 40.6915C229.253 38.2899 229.683 36.2415 230.545 34.5463C231.457 32.804 232.673 31.3913 234.193 30.3082C235.714 29.1781 237.487 28.354 239.514 27.836C241.592 27.318 243.796 27.059 246.127 27.059C249.877 27.059 252.639 27.5299 254.413 28.4717C256.186 29.3664 257.073 30.9204 257.073 33.1336C257.073 34.0754 256.845 34.923 256.389 35.6764C255.984 36.4299 255.527 36.995 255.021 37.3717C254.058 37.1362 253.044 36.9479 251.98 36.8066C250.967 36.6182 249.776 36.5241 248.408 36.5241C246.229 36.5241 244.531 36.8772 243.315 37.5836C242.099 38.2428 241.491 39.4201 241.491 41.1153V43.3756H253.957C254.261 43.8936 254.539 44.5528 254.793 45.3534C255.097 46.1068 255.249 46.9544 255.249 47.8962C255.249 49.5444 254.843 50.7451 254.033 51.4986C253.272 52.2049 252.234 52.5581 250.916 52.5581H242.175V74.9492C241.668 75.0905 240.857 75.2318 239.742 75.373C238.678 75.5143 237.563 75.5849 236.398 75.5849C235.283 75.5849 234.269 75.5143 233.357 75.373C232.496 75.2318 231.761 74.9492 231.153 74.5254C230.545 74.1016 230.063 73.5365 229.709 72.8302C229.405 72.0768 229.253 71.1114 229.253 69.9342V40.6915Z" fill="#8B53FF"/>
<path d="M272.793 63.2239C272.793 64.4482 273.198 65.3194 274.009 65.8374C274.87 66.3554 276.061 66.6143 277.582 66.6143C278.342 66.6143 279.127 66.5673 279.938 66.4731C280.749 66.3318 281.458 66.167 282.066 65.9786C282.522 66.4966 282.902 67.0853 283.206 67.7445C283.561 68.3567 283.739 69.1101 283.739 70.0048C283.739 71.7942 283.004 73.254 281.534 74.3841C280.115 75.5143 277.582 76.0794 273.933 76.0794C269.474 76.0794 266.028 75.1376 263.595 73.254C261.214 71.3704 260.023 68.3096 260.023 64.0715V33.84C260.58 33.6987 261.366 33.5574 262.379 33.4161C263.443 33.2278 264.558 33.1336 265.724 33.1336C267.953 33.1336 269.676 33.5103 270.892 34.2638C272.159 34.9701 272.793 36.5005 272.793 38.855V43.3756H282.75C283.054 43.8936 283.333 44.5528 283.586 45.3534C283.891 46.1068 284.043 46.9544 284.043 47.8962C284.043 49.5444 283.637 50.7451 282.826 51.4986C282.066 52.2049 281.027 52.5581 279.71 52.5581H272.793V63.2239Z" fill="#8B53FF"/>
<path d="M229.252 4.52632C219.611 -3.50357 201.057 2.30643 200.278 4.47295C200.278 19.6385 207.78 26.9502 214.821 27.0105C221.862 27.0707 229.186 15.7791 229.252 4.52632Z" fill="url(#paint0_linear_3027_7641)"/>
</g>
<defs>
<filter id="filter0_d_3027_7641" x="0.458008" y="0.408203" width="291.085" height="102.186" filterUnits="userSpaceOnUse" color-interpolation-filters="sRGB">
<feFlood flood-opacity="0" result="BackgroundImageFix"/>
<feColorMatrix in="SourceAlpha" type="matrix" values="0 0 0 0 0 0 0 0 0 0 0 0 0 0 0 0 0 0 127 0" result="hardAlpha"/>
<feOffset dy="7.5"/>
<feGaussianBlur stdDeviation="3.75"/>
<feComposite in2="hardAlpha" operator="out"/>
<feColorMatrix type="matrix" values="0 0 0 0 0.545098 0 0 0 0 0.32549 0 0 0 0 1 0 0 0 0.4 0"/>
<feBlend mode="normal" in2="BackgroundImageFix" result="effect1_dropShadow_3027_7641"/>
<feBlend mode="normal" in="SourceGraphic" in2="effect1_dropShadow_3027_7641" result="shape"/>
</filter>
<linearGradient id="paint0_linear_3027_7641" x1="202.35" y1="13.6507" x2="227.292" y2="13.6507" gradientUnits="userSpaceOnUse">
<stop offset="0.295" stop-color="#D1BCFF"/>
<stop offset="0.88" stop-color="#8B53FF"/>
</linearGradient>
</defs>
</svg>
