<svg width="41" height="41" viewBox="0 0 41 41" fill="none" xmlns="http://www.w3.org/2000/svg">
<g clip-path="url(#clip0_2995_3584)">
<path d="M32.0982 28.2302C30.7745 27.7352 29.2675 26.9646 29.2675 25.9675C29.2675 25.3073 29.2675 24.4826 29.2675 23.3512C29.7514 22.0082 30.4795 21.9121 30.8441 19.8509C31.6926 19.5477 32.1777 19.0627 32.7831 16.9407C33.2383 15.3436 32.5677 14.9149 32.1335 14.8005C32.1423 14.7155 32.1511 14.6298 32.1589 14.5293C32.3224 12.1373 33.7112 5.03688 28.9028 4.18828C27.63 3.19836 26.8223 2.74977 24.0944 2.91547C22.3676 2.91484 21.055 3.29609 19.2265 2.77344C18.1128 3.70781 17.6499 5.61859 17.5051 7.72617C17.1847 7.50188 16.8478 7.29969 16.4511 7.14609C15.849 6.91297 15.1617 6.80859 14.2822 6.80969C14.0083 6.80969 13.7122 6.81969 13.3918 6.83898C12.4726 6.84445 11.7366 6.95328 11.0528 6.95055C10.5733 6.95008 10.1125 6.90523 9.57115 6.75117L9.13802 6.62742L8.79224 6.91695C8.38786 7.25727 8.08294 7.68539 7.84755 8.15274C7.49622 8.85602 7.29294 9.65649 7.16591 10.5045C7.03997 11.3519 6.99466 12.2479 6.99466 13.1346C6.99466 14.614 7.1206 16.068 7.23443 17.1873C7.17365 17.2354 7.11286 17.2834 7.05536 17.3448C6.90732 17.5027 6.77919 17.7055 6.69739 17.9348C6.6145 18.1641 6.57474 18.4165 6.57474 18.6838C6.57474 18.9993 6.62779 19.3368 6.7349 19.713C7.00333 20.6445 7.24646 21.2703 7.59896 21.7703C7.77458 22.0178 7.98568 22.2272 8.21325 22.3846C8.29169 22.4399 8.37239 22.4813 8.45193 22.5244C8.64747 23.2828 8.94911 23.8573 9.20872 24.2606C9.36232 24.5004 9.49482 24.6871 9.56786 24.8114C9.60427 24.8733 9.62638 24.9186 9.6363 24.9429L9.63857 24.949C9.63857 25.8534 9.63857 26.5245 9.63857 27.062L9.6231 27.0963C9.59771 27.1432 9.5281 27.2327 9.41536 27.3316C9.07841 27.6393 8.38122 27.9813 7.82435 28.1724C6.87091 28.511 5.0456 29.1728 3.41372 30.4782C2.59833 31.1317 1.82716 31.9543 1.25818 32.9868C0.689036 34.017 0.332161 35.2578 0.333254 36.688C0.333254 36.9366 0.344348 37.1908 0.365364 37.4509L0.43052 38.2288H9.56224H9.70036H40.2986C40.863 31.4614 34.3974 29.0904 32.0982 28.2302ZM20.5933 25.9675C20.5933 26.9646 18.9658 27.806 17.7626 28.2302C15.6522 28.9738 10.1091 31.0477 9.57107 36.5316H2.04029C2.06568 35.4534 2.32872 34.565 2.74521 33.8054C3.39935 32.6127 4.45224 31.7194 5.53388 31.0675C6.61552 30.4151 7.7038 30.0141 8.38888 29.7732C8.94786 29.5743 9.59427 29.2909 10.1611 28.8981C10.4439 28.6998 10.7112 28.4744 10.9333 28.1838C11.1521 27.8977 11.3344 27.5176 11.3355 27.0701C11.3355 26.5149 11.3355 25.8216 11.3355 24.8703V24.8266L11.3311 24.7831C11.2924 24.4284 11.1532 24.161 11.0272 23.9456C10.8317 23.6207 10.6329 23.3645 10.4549 23.0391C10.2781 22.7153 10.1157 22.332 10.0174 21.7795L9.93114 21.2939L9.46708 21.1281C9.33122 21.079 9.24724 21.037 9.182 20.9911C9.0881 20.9226 8.99529 20.837 8.85169 20.573C8.71247 20.3122 8.54896 19.8852 8.36669 19.2466C8.29263 18.9886 8.2706 18.8018 8.27169 18.6836C8.27169 18.5825 8.28607 18.5317 8.29263 18.5118L8.29489 18.5063L8.32247 18.498L9.05943 18.3323L8.98099 17.5809C8.85833 16.427 8.69044 14.768 8.69154 13.1345C8.69044 12.0307 8.76997 10.9396 8.97435 10.0552C9.07599 9.61266 9.20857 9.22438 9.36443 8.91328C9.44286 8.7575 9.52568 8.62266 9.61302 8.50719C10.1268 8.61211 10.6063 8.64805 11.0527 8.6475C11.9167 8.64469 12.647 8.53258 13.4326 8.53484H13.4579L13.4833 8.5332C13.7817 8.515 14.0458 8.50664 14.2822 8.50664C15.0379 8.50719 15.4843 8.59281 15.839 8.7293C16.1936 8.86578 16.5052 9.0768 16.9538 9.42703L17.0864 9.52977L17.4532 9.69328C17.4709 11.6008 17.6597 13.4786 17.7979 14.7884C17.3681 14.8845 16.6279 15.2834 17.1018 16.9406C17.7073 19.0625 18.1923 19.5476 19.0409 19.8509C19.4044 21.912 20.5126 22.5738 20.5933 23.3511C20.5933 24.4826 20.5933 25.3073 20.5933 25.9675Z" fill="#030055"/>
</g>
<defs>
<clipPath id="clip0_2995_3584">
<rect width="40" height="40" fill="white" transform="translate(0.333252 0.5)"/>
</clipPath>
</defs>
</svg>
