<svg width="13" height="12" viewBox="0 0 13 12" fill="none" xmlns="http://www.w3.org/2000/svg">
<path d="M5.5188 0.905092C5.70524 0.364969 6.51699 0.36497 6.70342 0.905093L7.71911 3.84766C7.80248 4.08921 8.04161 4.25275 8.31142 4.25275H11.5982C12.2016 4.25275 12.4524 4.97948 11.9643 5.3133L9.30521 7.1319C9.08693 7.28119 8.99559 7.54581 9.07897 7.78736L10.0947 10.7299C10.2811 11.27 9.62436 11.7192 9.13627 11.3854L6.47718 9.56677C6.2589 9.41749 5.96332 9.41749 5.74504 9.56677L3.08595 11.3854C2.59786 11.7192 1.94114 11.27 2.12757 10.7299L3.14325 7.78736C3.22663 7.54581 3.13529 7.28119 2.91701 7.1319L0.257918 5.3133C-0.230173 4.97948 0.0206733 4.25275 0.623987 4.25275H3.91081C4.18062 4.25275 4.41974 4.08921 4.50312 3.84766L5.5188 0.905092Z" fill="#F1B144"/>
</svg>
