<svg width="32" height="35" viewBox="0 0 32 35" fill="none" xmlns="http://www.w3.org/2000/svg">
<path d="M15 0.832031C11.4638 0.832031 8.07239 2.23679 5.57191 4.73727C3.07142 7.23776 1.66667 10.6291 1.66667 14.1654V17.332C1.16389 17.7701 0.756506 18.3068 0.469802 18.9089C0.183098 19.511 0.0231893 20.1656 0 20.832C0.0379622 21.7984 0.366979 22.7308 0.943938 23.5071C1.5209 24.2833 2.31888 24.8671 3.23333 25.182C5.4 30.3654 9.75 34.1654 15 34.1654H20V30.832H15C11.2333 30.832 7.81667 27.9987 6.1 23.5154L5.75 22.5987L4.76667 22.4987C4.36621 22.4421 3.99999 22.2418 3.73628 21.9352C3.47257 21.6285 3.32935 21.2365 3.33333 20.832C3.33509 20.5412 3.41293 20.2558 3.55912 20.0044C3.70532 19.7529 3.91477 19.5441 4.16667 19.3987L5 18.9154V15.832C5 15.39 5.17559 14.9661 5.48816 14.6535C5.80072 14.341 6.22464 14.1654 6.66667 14.1654H23.3333C23.7754 14.1654 24.1993 14.341 24.5118 14.6535C24.8244 14.9661 25 15.39 25 15.832V24.1654H18.1833C18.032 23.7411 17.7689 23.3655 17.4218 23.0785C17.0746 22.7914 16.6564 22.6035 16.2112 22.5345C15.7661 22.4656 15.3106 22.5182 14.8928 22.6868C14.4751 22.8554 14.1107 23.1337 13.8382 23.4924C13.5656 23.851 13.395 24.2766 13.3444 24.7242C13.2938 25.1718 13.3651 25.6248 13.5507 26.0352C13.7363 26.4457 14.0294 26.7983 14.3989 27.0559C14.7684 27.3135 15.2007 27.4665 15.65 27.4987H28.3333C29.2174 27.4987 30.0652 27.1475 30.6904 26.5224C31.3155 25.8973 31.6667 25.0494 31.6667 24.1654V20.832C31.6667 19.948 31.3155 19.1001 30.6904 18.475C30.0652 17.8499 29.2174 17.4987 28.3333 17.4987V14.1654C28.3333 10.6291 26.9286 7.23776 24.4281 4.73727C21.9276 2.23679 18.5362 0.832031 15 0.832031Z" fill="#030055"/>
</svg>
